HIERARCHY
ROOT Hips
{
	OFFSET 0.000000 0.000000 0.000000
	CHANNELS 6 Xposition Yposition Zposition Zrotation Yrotation Xrotation 
	JOINT LHipJoint
	{
		OFFSET 0.000000 0.000000 0.000000
		CHANNELS 3 Zrotation Yrotation Xrotation
		JOINT LeftUpLeg
		{
			OFFSET 1.363060 -1.794630 0.839290
			CHANNELS 3 Zrotation Yrotation Xrotation
			JOINT LeftLeg
			{
				OFFSET 2.448110 -6.726130 0.000000
				CHANNELS 3 Zrotation Yrotation Xrotation
				JOINT LeftFoot
				{
					OFFSET 2.562200 -7.039590 0.000000
					CHANNELS 3 Zrotation Yrotation Xrotation
					JOINT LeftToeBase
					{
						OFFSET 0.157640 -0.433110 2.322550
						CHANNELS 3 Zrotation Yrotation Xrotation
						End Site
						{
							OFFSET 0.000000 0.000000 0.000000
						}
					}
				}
			}
		}
	}
	JOINT RHipJoint
	{
		OFFSET 0.000000 0.000000 0.000000
		CHANNELS 3 Zrotation Yrotation Xrotation
		JOINT RightUpLeg
		{
			OFFSET -1.305520 -1.794630 0.839290
			CHANNELS 3 Zrotation Yrotation Xrotation
			JOINT RightLeg
			{
				OFFSET -2.542530 -6.985550 0.000000
				CHANNELS 3 Zrotation Yrotation Xrotation
				JOINT RightFoot
				{
					OFFSET -2.568260 -7.056230 0.000000
					CHANNELS 3 Zrotation Yrotation Xrotation
					JOINT RightToeBase
					{
						OFFSET -0.164730 -0.452590 2.363150
						CHANNELS 3 Zrotation Yrotation Xrotation
						End Site
						{
							OFFSET 0.000000 0.000000 0.000000
						}
					}
				}
			}
		}
	}
	JOINT LowerBack
	{
		OFFSET 0.000000 0.000000 0.000000
		CHANNELS 3 Zrotation Yrotation Xrotation
		JOINT Spine
		{
			OFFSET 0.028270 2.035590 -0.193380
			CHANNELS 3 Zrotation Yrotation Xrotation
			JOINT Spine1
			{
				OFFSET 0.056720 2.048850 -0.042750
				CHANNELS 3 Zrotation Yrotation Xrotation
				JOINT Neck
				{
					OFFSET 0.000000 0.000000 0.000000
					CHANNELS 3 Zrotation Yrotation Xrotation
					JOINT Neck1
					{
						OFFSET -0.054170 1.746240 0.172020
						CHANNELS 3 Zrotation Yrotation Xrotation
						JOINT Head
						{
							OFFSET 0.104070 1.761360 -0.123970
							CHANNELS 3 Zrotation Yrotation Xrotation
							End Site
							{
								OFFSET 0.000000 0.000000 0.000000
							}
						}
					}
				}
				JOINT LeftShoulder
				{
					OFFSET 0.000000 0.000000 0.000000
					CHANNELS 3 Zrotation Yrotation Xrotation
					JOINT LeftArm
					{
						OFFSET 3.362410 1.200890 -0.311210
						CHANNELS 3 Zrotation Yrotation Xrotation
						JOINT LeftForeArm
						{
							OFFSET 4.983000 -0.000000 -0.000000
							CHANNELS 3 Zrotation Yrotation Xrotation
							JOINT LeftHand
							{
								OFFSET 3.483560 -0.000000 -0.000000
								CHANNELS 3 Zrotation Yrotation Xrotation
								JOINT LeftFingerBase
								{
									OFFSET 0.000000 0.000000 0.000000
									CHANNELS 3 Zrotation Yrotation Xrotation
									JOINT LeftHandIndex1
									{
										OFFSET 0.715260 -0.000000 -0.000000
										CHANNELS 3 Zrotation Yrotation Xrotation
										End Site
										{
											OFFSET 0.000000 0.000000 0.000000
										}
									}
								}
								JOINT LThumb
								{
									OFFSET 0.000000 0.000000 0.000000
									CHANNELS 3 Zrotation Yrotation Xrotation
									End Site
									{
										OFFSET 0.000000 0.000000 0.000000
									}
								}
							}
						}
					}
				}
				JOINT RightShoulder
				{
					OFFSET 0.000000 0.000000 0.000000
					CHANNELS 3 Zrotation Yrotation Xrotation
					JOINT RightArm
					{
						OFFSET -3.136600 1.374050 -0.404650
						CHANNELS 3 Zrotation Yrotation Xrotation
						JOINT RightForeArm
						{
							OFFSET -5.241900 -0.000000 -0.000000
							CHANNELS 3 Zrotation Yrotation Xrotation
							JOINT RightHand
							{
								OFFSET -3.444170 -0.000000 -0.000000
								CHANNELS 3 Zrotation Yrotation Xrotation
								JOINT RightFingerBase
								{
									OFFSET 0.000000 0.000000 0.000000
									CHANNELS 3 Zrotation Yrotation Xrotation
									JOINT RightHandIndex1
									{
										OFFSET -0.622530 -0.000000 -0.000000
										CHANNELS 3 Zrotation Yrotation Xrotation
										End Site
										{
											OFFSET 0.000000 0.000000 0.000000
										}
									}
								}
								JOINT RThumb
								{
									OFFSET 0.000000 0.000000 0.000000
									CHANNELS 3 Zrotation Yrotation Xrotation
									End Site
									{
										OFFSET 0.000000 0.000000 0.000000
									}
								}
							}
						}
					}
				}
			}
		}
	}
}
MOTION
Frames: 8
Frame Time: 0.008333
-0.347863 17.415773 -4.503953 -1.531036 -11.522109 22.247684 -2.861998 -5.383543 -6.654213 -11.143429 0.110319 -47.069134 -1.588563 7.673011 17.509617 -0.425454 7.448817 15.143433 0.546600 -4.736400 -13.158400 2.767266 1.144485 1.503723 13.133179 -0.668475 -3.469975 0.176737 -7.187824 22.230106 -2.814876 23.916500 11.978434 -0.247300 3.199700 -8.835300 0.441271 5.082208 -11.653722 -0.197258 5.779419 -8.865145 -1.378495 3.430762 0.271389 -1.900870 -0.969026 -9.951503 3.470131 -1.363281 11.323301 -0.130200 -0.447200 4.329000 12.733008 8.323939 0.509548 -100.211299 27.537789 -17.051914 2.636140 -12.023925 -0.106129 -1.296993 0.056006 38.932429 9.723189 -17.559275 -3.133000 -7.125000 0.000000 0.000000 -11.323100 13.216400 8.607800 -13.260829 -7.082022 -1.009051 92.405445 8.146574 35.987341 -39.582191 52.939829 -18.925440 0.483265 -0.780632 -15.578598 -19.699470 -32.226301 10.665600 7.125000 0.000000 0.000000 14.149500 -62.258000 -6.001200
-0.336766 17.404499 -4.354620 -1.277970 -10.775819 22.031720 -2.863564 -5.346765 -6.603956 -11.080858 -0.847699 -46.919987 -1.467907 8.036348 18.489402 -0.265826 6.916740 15.462975 0.450741 -4.285926 -11.885834 2.732284 1.137721 1.510278 13.119255 -1.007571 -3.334490 0.086297 -7.404554 22.961738 -2.739635 23.320190 13.329591 -0.222957 3.035346 -8.377431 0.331676 4.774654 -11.440818 -0.185396 5.431110 -8.885765 -1.489475 3.240723 0.160156 -1.946951 -0.986111 -10.045699 3.580680 -1.392844 11.360977 -0.053394 -0.459021 4.390423 12.726730 8.302091 0.506989 -100.249284 27.389613 -18.915946 2.552808 -11.743483 -0.087070 -1.292395 0.096731 40.310273 9.522582 -17.590347 -3.081940 -7.125000 0.000000 0.000000 -11.452262 13.190654 8.716613 -13.261980 -7.073641 -0.994886 92.563595 7.681661 35.872379 -39.462427 52.876522 -18.831336 0.484832 -0.784401 -15.360356 -19.711509 -31.975716 10.598077 7.125000 0.000000 0.000000 13.945907 -62.013602 -5.833500
-0.325791 17.392130 -4.204130 -0.931252 -9.951235 21.749249 -2.882348 -5.301139 -6.542024 -11.114670 -1.870244 -46.705441 -1.350678 8.395774 19.467347 -0.104250 6.355176 15.753620 0.357584 -3.834545 -10.612560 2.699649 1.127990 1.517120 13.055767 -1.421261 -3.173966 -0.018883 -7.636485 23.743031 -2.669817 22.658399 14.638620 -0.202224 2.895399 -7.987556 0.137920 4.424333 -11.182962 -0.177473 5.045628 -8.898551 -1.593282 3.030432 0.047990 -1.984032 -1.007261 -10.133066 3.693604 -1.429600 11.394632 0.021417 -0.473886 4.448254 12.721345 8.278605 0.504198 -100.269563 27.235629 -20.789350 2.470811 -11.465338 -0.067986 -1.287757 0.136686 41.762823 9.362069 -17.615717 -3.041008 -7.125000 0.000000 0.000000 -11.555881 13.169869 8.803931 -13.265328 -7.063948 -0.977947 92.732719 7.199950 35.738606 -39.352496 52.818745 -18.744271 0.486533 -0.788325 -15.148985 -19.729094 -31.731262 10.535301 7.125000 0.000000 0.000000 13.741177 -61.776183 -5.668185
-0.315521 17.373419 -4.046946 -0.042337 -8.673366 21.081731 -3.000818 -5.204290 -6.412496 -11.706495 -3.266364 -46.112268 -1.253291 8.732556 20.434634 0.068610 5.622894 15.876965 0.280076 -3.377917 -9.335190 2.680601 1.101076 1.525628 12.705336 -2.266805 -2.868478 -0.209405 -7.956422 24.811832 -2.631398 21.617511 15.703746 -0.202386 2.896748 -7.991335 -0.543079 3.826420 -10.664858 -0.192352 4.444926 -8.865979 -1.655565 2.702884 -0.069585 -1.969003 -1.051950 -10.180895 3.820279 -1.508000 11.405008 0.084676 -0.506379 4.485280 12.721131 8.245643 0.500063 -100.187332 27.048016 -22.717009 2.396545 -11.200484 -0.048752 -1.282891 0.172187 43.647877 9.433678 -17.608075 -3.058711 -7.125000 0.000000 0.000000 -11.511622 13.177803 8.766796 -13.281396 -7.046665 -0.944947 92.965373 6.620987 35.495931 -39.299494 52.792987 -18.697953 0.489004 -0.793153 -14.977393 -19.778794 -31.522301 10.500001 7.125000 0.000000 0.000000 13.529865 -61.579175 -5.516677
-0.312345 17.359107 -3.893831 0.715789 -7.831132 20.592073 -3.075750 -5.117458 -6.299575 -12.241397 -4.308520 -45.716671 -1.145130 9.056738 21.368240 0.193640 5.043679 15.909082 0.209230 -2.930448 -8.086074 2.651536 1.091211 1.511965 12.320463 -2.712578 -2.737956 -0.391178 -8.294163 25.919079 -2.602197 20.547087 17.002979 -0.199749 2.877667 -7.938304 -1.257185 3.387236 -10.289689 -0.225562 4.042618 -8.848769 -1.648844 2.482880 -0.176373 -1.959298 -1.106307 -10.234833 3.952405 -1.600351 11.406185 0.145756 -0.545374 4.517283 12.713280 8.215233 0.491567 -100.080170 26.822153 -24.716203 2.318246 -10.923100 -0.030794 -1.275051 0.207882 45.663246 9.511320 -17.550896 -3.068322 -7.125000 0.000000 0.000000 -11.465995 13.234708 8.716608 -13.298424 -7.028874 -0.913971 93.192165 6.035710 35.238636 -39.255150 52.769627 -18.659398 0.489602 -0.796604 -14.858021 -19.830869 -31.435743 10.502574 7.125000 0.000000 0.000000 13.405858 -61.504116 -5.440645
-0.326156 17.355329 -3.750460 1.160708 -8.032129 20.528341 -3.046420 -5.054614 -6.226422 -12.639984 -4.503030 -45.794217 -1.011168 9.350750 22.221189 0.204132 4.831014 15.722731 0.154338 -2.504910 -6.904618 2.598485 1.122176 1.445207 11.853111 -2.201004 -3.026432 -0.551999 -8.674538 27.118390 -2.595070 19.405930 18.862836 -0.190412 2.809658 -7.749230 -2.050574 3.328166 -10.256813 -0.302673 4.115413 -8.868345 -1.476879 2.520414 -0.257329 -1.962342 -1.183818 -10.303401 4.097582 -1.726110 11.385334 0.201620 -0.599943 4.537254 12.687136 8.190933 0.472626 -99.913302 26.504692 -26.886703 2.230287 -10.615707 -0.015895 -1.260092 0.244045 47.990683 9.603409 -17.375087 -3.058553 -7.125000 0.000000 0.000000 -11.417094 13.408885 8.635159 -13.317753 -7.009865 -0.887840 93.404915 5.435312 34.946327 -39.231542 52.752008 -18.639432 0.485715 -0.796756 -14.863701 -19.888631 -31.642305 10.595843 7.125000 0.000000 0.000000 13.490922 -61.721095 -5.545356
-0.336134 17.353143 -3.606696 1.546890 -8.063780 20.446434 -3.026389 -4.996462 -6.149847 -13.024854 -4.747909 -45.808743 -0.877623 9.632003 23.053453 0.218766 4.562418 15.437358 0.130855 -2.329194 -6.416415 2.547821 1.156428 1.370975 11.473041 -1.885461 -3.403781 -0.742582 -9.080086 28.395306 -2.597602 18.320666 20.833492 -0.174038 2.682599 -7.396525 -2.714122 3.237944 -10.207862 -0.361621 4.123239 -8.884428 -1.335269 2.524197 -0.337170 -1.993175 -1.253767 -10.308303 4.252819 -1.841845 11.342583 0.273487 -0.651435 4.526149 12.665220 8.164719 0.458035 -99.775880 26.170958 -29.192757 2.144652 -10.299525 -0.001696 -1.242786 0.283592 50.328679 9.624100 -17.208344 -3.030872 -7.125000 0.000000 0.000000 -11.414055 13.575359 8.591608 -13.334760 -6.996599 -0.859334 93.601928 4.803740 34.661970 -39.223330 52.745588 -18.631702 0.479833 -0.796316 -14.876147 -20.035514 -32.097949 10.815823 7.125000 0.000000 0.000000 13.667759 -62.203971 -5.778425
-0.341269 17.352966 -3.462439 1.858876 -7.881520 20.341569 -3.018107 -4.944235 -6.068951 -13.392398 -5.056415 -45.743667 -0.744603 9.897140 23.859591 0.238635 4.223169 15.026904 0.147047 -2.469043 -6.803900 2.500172 1.194835 1.287303 11.203220 -1.817536 -3.893391 -0.970757 -9.517432 29.770250 -2.612334 17.306004 22.944103 -0.148778 2.480949 -6.837129 -3.213660 3.108371 -10.138607 -0.397625 4.049001 -8.896100 -1.232005 2.485347 -0.415601 -2.059111 -1.314165 -10.232786 4.420761 -1.944919 11.272166 0.365568 -0.699041 4.475790 12.648645 8.136088 0.448937 -99.675652 25.816667 -31.670037 2.061950 -9.972242 0.011619 -1.222515 0.327415 52.680011 9.554603 -17.053052 -2.980568 -7.125000 0.000000 0.000000 -11.468947 13.732102 8.595926 -13.348831 -6.990586 -0.827829 93.779060 4.132790 34.387658 -39.234566 52.753315 -18.639426 0.471429 -0.795127 -14.897139 -20.294970 -32.868224 11.195861 7.125000 0.000000 0.000000 13.960519 -63.022716 -6.173629
